<svg width="1024" height="1024" viewBox="0 0 1024 1024" fill="none" xmlns="http://www.w3.org/2000/svg">
<rect width="1024" height="1024" fill="#4C33CC"/>
<path d="M273.816 312H532.078L522.263 359.874H396.506L372.581 475.15H477.481L467.666 523.654H362.766L323.505 712H191L273.816 312Z" fill="white"/>
<path d="M573.816 312H832.078L822.263 359.874H696.506L672.581 475.15H777.481L767.666 523.654H662.766L623.505 712H491L573.816 312Z" fill="#FFC042"/>
<path d="M206.711 343.881C207 344.295 207.404 344.605 207.924 344.812C208.439 345.016 209.041 345.117 209.729 345.117C210.424 345.117 211.041 344.955 211.58 344.631C212.119 344.303 212.537 343.838 212.834 343.236C213.127 342.635 213.277 341.938 213.285 341.145V340.4C213.285 339.115 212.986 338.119 212.389 337.412C211.787 336.705 210.943 336.352 209.857 336.352C208.967 336.352 208.25 336.58 207.707 337.037C207.164 337.49 206.832 338.135 206.711 338.971H207.836C208.047 337.842 208.719 337.277 209.852 337.277C210.605 337.277 211.178 337.543 211.568 338.074C211.955 338.602 212.15 339.367 212.154 340.371V341.068C212.154 342.025 211.936 342.787 211.498 343.354C211.061 343.916 210.469 344.197 209.723 344.197C209.301 344.197 208.932 344.15 208.615 344.057C208.299 343.963 208.037 343.805 207.83 343.582V341.666H209.805V340.752H206.711V343.881Z" fill="black"/>
</svg>
